<svg xmlns="http://www.w3.org/2000/svg" width="24" height="24" viewBox="0 0 24 24" fill="none" stroke="#005691" stroke-width="2" stroke-linecap="round" stroke-linejoin="round" class="lucide lucide-brain">
  <path d="M9.513 18.096A13.486 13.486 0 0 1 12 16c2.25 0 4.293.739 6.013 1.94a2 2 0 1 0 2.478-2.617A10 10 0 0 0 12 2C8.32 2 5.045 3.52 2.652 5.864a2 2 0 1 0 2.427 2.766A13.486 13.486 0 0 1 7.513 6.9c.77-.282 1.58-.45 2.4-.515"/>
  <path d="M12 16v2"/>
  <path d="M12 2c-.93 0-1.85.122-2.728.363"/>
  <path d="M12 16c-.93 0-1.85.122-2.728.363"/>
  <path d="M22 17c0-2.67-3.58-5.18-8.24-5.69"/>
  <path d="M14 11a4.25 4.25 0 0 0-4.464 4.249c-2.454.493-4.535 2.585-4.535 5.251 0 1.25.756 2.051 2 2.051.684 0 1.348-.358 2-.857"/>
  <path d="M14 11c-.347-.3-.72-.56-1.109-.8"/>
  <path d="M16 13a4.25 4.25 0 0 1 4.249 4.464c.493 2.454 2.585 4.535 5.251 4.535 1.25 0 2.051-.756 2.051-2s-.857-2-2-2.857"/>
  <path d="M16 13c-.3-.347-.56-.72-.8-1.109"/>
</svg>